<mxfile host="app.diagrams.net" modified="2024-06-14T20:01:03.693Z" agent="Mozilla/5.0 (Macintosh; Intel Mac OS X 10_15_7) AppleWebKit/605.1.15 (KHTML, like Gecko) Version/17.4 Safari/605.1.15" version="24.5.4" etag="DsholLnWmbXwl5gz0L-I" type="github">
  <diagram name="Page-1" id="6dkWt5aOKEMOMgKYwa4K">
    <mxGraphModel>
      <root>
        <mxCell id="0" />
        <mxCell id="1" parent="0" />
        <mxCell id="2" value="Client" style="whiteSpace=wrap;strokeWidth=2;" vertex="1" parent="1">
          <mxGeometry x="155" width="58" height="34" as="geometry" />
        </mxCell>
        <mxCell id="3" value="Load Balancer" style="whiteSpace=wrap;strokeWidth=2;" vertex="1" parent="1">
          <mxGeometry x="125" y="84" width="116" height="34" as="geometry" />
        </mxCell>
        <mxCell id="4" value="Server1" style="whiteSpace=wrap;strokeWidth=2;" vertex="1" parent="1">
          <mxGeometry x="10" y="167" width="69" height="34" as="geometry" />
        </mxCell>
        <mxCell id="5" value="Server2" style="whiteSpace=wrap;strokeWidth=2;" vertex="1" parent="1">
          <mxGeometry x="149" y="167" width="69" height="34" as="geometry" />
        </mxCell>
        <mxCell id="6" value="Server3" style="whiteSpace=wrap;strokeWidth=2;" vertex="1" parent="1">
          <mxGeometry x="273" y="167" width="69" height="34" as="geometry" />
        </mxCell>
        <mxCell id="7" value="Database1" style="whiteSpace=wrap;strokeWidth=2;" vertex="1" parent="1">
          <mxGeometry y="251" width="89" height="34" as="geometry" />
        </mxCell>
        <mxCell id="8" value="Database2" style="whiteSpace=wrap;strokeWidth=2;" vertex="1" parent="1">
          <mxGeometry x="139" y="251" width="89" height="34" as="geometry" />
        </mxCell>
        <mxCell id="9" value="Cache" style="whiteSpace=wrap;strokeWidth=2;" vertex="1" parent="1">
          <mxGeometry x="278" y="251" width="58" height="34" as="geometry" />
        </mxCell>
        <mxCell id="10" value="" style="curved=1;startArrow=none;endArrow=block;exitX=0.49;exitY=0.99;entryX=0.5;entryY=-0.01;" edge="1" parent="1" source="2" target="3">
          <mxGeometry relative="1" as="geometry">
            <Array as="points" />
          </mxGeometry>
        </mxCell>
        <mxCell id="11" value="" style="curved=1;startArrow=none;endArrow=block;exitX=0.02;exitY=0.98;entryX=0.5;entryY=0.01;" edge="1" parent="1" source="3" target="4">
          <mxGeometry relative="1" as="geometry">
            <Array as="points">
              <mxPoint x="44" y="142" />
            </Array>
          </mxGeometry>
        </mxCell>
        <mxCell id="12" value="" style="curved=1;startArrow=none;endArrow=block;exitX=0.5;exitY=0.98;entryX=0.5;entryY=0.01;" edge="1" parent="1" source="3" target="5">
          <mxGeometry relative="1" as="geometry">
            <Array as="points" />
          </mxGeometry>
        </mxCell>
        <mxCell id="13" value="" style="curved=1;startArrow=none;endArrow=block;exitX=0.93;exitY=0.98;entryX=0.49;entryY=0.01;" edge="1" parent="1" source="3" target="6">
          <mxGeometry relative="1" as="geometry">
            <Array as="points">
              <mxPoint x="307" y="142" />
            </Array>
          </mxGeometry>
        </mxCell>
        <mxCell id="14" value="" style="curved=1;startArrow=none;endArrow=block;exitX=0.5;exitY=0.99;entryX=0.5;entryY=-0.01;" edge="1" parent="1" source="4" target="7">
          <mxGeometry relative="1" as="geometry">
            <Array as="points" />
          </mxGeometry>
        </mxCell>
        <mxCell id="15" value="" style="curved=1;startArrow=none;endArrow=block;exitX=0.5;exitY=0.99;entryX=0.5;entryY=-0.01;" edge="1" parent="1" source="5" target="8">
          <mxGeometry relative="1" as="geometry">
            <Array as="points" />
          </mxGeometry>
        </mxCell>
        <mxCell id="16" value="" style="curved=1;startArrow=none;endArrow=block;exitX=0.49;exitY=0.99;entryX=0.5;entryY=-0.01;" edge="1" parent="1" source="6" target="9">
          <mxGeometry relative="1" as="geometry">
            <Array as="points" />
          </mxGeometry>
        </mxCell>
      </root>
    </mxGraphModel>
  </diagram>
</mxfile>
